<mxfile host="app.diagrams.net" modified="2023-11-10T08:40:33.414Z" agent="Mozilla/5.0 (Macintosh; Intel Mac OS X 10_15_7) AppleWebKit/537.36 (KHTML, like Gecko) Chrome/119.0.0.0 Safari/537.36" version="21.7.1" etag="8cx-HKZVBUnQytNDq-q9" type="github">
  <diagram name="第 1 页" id="Xhgq0PyVB4QS4eHgWzg1">
    <mxGraphModel>
      <root>
        <mxCell id="0" />
        <mxCell id="1" parent="0" />
      </root>
    </mxGraphModel>
  </diagram>
</mxfile>
